<svg xmlns="http://www.w3.org/2000/svg" version="1.1" xmlns:xlink="http://www.w3.org/1999/xlink" xmlns:svgjs="http://svgjs.com/svgjs" width="1440" height="560" preserveAspectRatio="none" viewBox="0 0 1440 560"><g mask="url(&quot;#SvgjsMask1086&quot;)" fill="none"><rect width="1440" height="560" x="0" y="0" fill="#0e2a47"></rect><path d="M1438 159L495 158" stroke-width="8" stroke="url(#SvgjsLinearGradient1087)" stroke-linecap="round" class="Right"></path><path d="M907 382L-95 381" stroke-width="8" stroke="url(#SvgjsLinearGradient1088)" stroke-linecap="round" class="Left"></path><path d="M1169 260L287 259" stroke-width="6" stroke="url(#SvgjsLinearGradient1087)" stroke-linecap="round" class="Right"></path><path d="M541 509L94 508" stroke-width="6" stroke="url(#SvgjsLinearGradient1087)" stroke-linecap="round" class="Right"></path><path d="M244 454L-499 453" stroke-width="6" stroke="url(#SvgjsLinearGradient1087)" stroke-linecap="round" class="Right"></path><path d="M561 386L1570 385" stroke-width="10" stroke="url(#SvgjsLinearGradient1088)" stroke-linecap="round" class="Left"></path><path d="M512 471L1268 470" stroke-width="6" stroke="url(#SvgjsLinearGradient1088)" stroke-linecap="round" class="Left"></path><path d="M875 493L1474 492" stroke-width="8" stroke="url(#SvgjsLinearGradient1088)" stroke-linecap="round" class="Left"></path><path d="M339 67L-96 66" stroke-width="6" stroke="url(#SvgjsLinearGradient1087)" stroke-linecap="round" class="Right"></path><path d="M569 144L-324 143" stroke-width="8" stroke="url(#SvgjsLinearGradient1088)" stroke-linecap="round" class="Left"></path><path d="M1123 481L103 480" stroke-width="8" stroke="url(#SvgjsLinearGradient1087)" stroke-linecap="round" class="Right"></path><path d="M942 143L1748 142" stroke-width="10" stroke="url(#SvgjsLinearGradient1088)" stroke-linecap="round" class="Left"></path><path d="M211 228L1174 227" stroke-width="8" stroke="url(#SvgjsLinearGradient1087)" stroke-linecap="round" class="Right"></path><path d="M222 90L-426 89" stroke-width="8" stroke="url(#SvgjsLinearGradient1087)" stroke-linecap="round" class="Right"></path></g><defs><mask id="SvgjsMask1086"><rect width="1440" height="560" fill="#ffffff"></rect></mask><linearGradient x1="0%" y1="0%" x2="100%" y2="0%" id="SvgjsLinearGradient1087"><stop stop-color="rgba(28, 83, 142, 0)" offset="0"></stop><stop stop-color="#1c538e" offset="1"></stop></linearGradient><linearGradient x1="100%" y1="0%" x2="0%" y2="0%" id="SvgjsLinearGradient1088"><stop stop-color="rgba(28, 83, 142, 0)" offset="0"></stop><stop stop-color="#1c538e" offset="1"></stop></linearGradient></defs></svg>